<?xml version="1.0" encoding="UTF-8"?>
<svg id="Layer_1" xmlns="http://www.w3.org/2000/svg" viewBox="0 0 64 64">
  <defs>
    <style>
      .cls-1 {
        fill: #fff;
      }
    </style>
  </defs>
  <rect class="cls-1" x=".5" y=".5" width="7" height="7" rx="1" ry="1"/>
  <rect class="cls-1" x="16.5" y=".5" width="7" height="7" rx="1" ry="1"/>
  <rect class="cls-1" x="24.5" y=".5" width="7" height="7" rx="1" ry="1"/>
  <rect class="cls-1" x=".5" y="8.5" width="7" height="7" rx="1" ry="1"/>
  <rect class="cls-1" x="24.5" y="8.5" width="7" height="7" rx="1" ry="1"/>
  <rect class="cls-1" x="8.5" y="8.5" width="15" height="15" rx="1" ry="1"/>
  <rect class="cls-1" x="24.5" y="16.5" width="7" height="7" rx="1" ry="1"/>
  <rect class="cls-1" x=".5" y="24.5" width="7" height="7" rx="1" ry="1"/>
  <rect class="cls-1" x="8.5" y="24.5" width="7" height="7" rx="1" ry="1"/>
  <rect class="cls-1" x="24.5" y="24.5" width="7" height="7" rx="1" ry="1"/>
  <rect class="cls-1" x="48.5" y=".5" width="15" height="15" rx="1" ry="1"/>
  <rect class="cls-1" x="32.5" y=".5" width="7" height="7" rx="1" ry="1"/>
  <rect class="cls-1" x="40.5" y=".5" width="7" height="7" rx="1" ry="1"/>
  <rect class="cls-1" x="40.5" y="8.5" width="7" height="7" rx="1" ry="1"/>
  <rect class="cls-1" x="32.5" y="16.5" width="7" height="7" rx="1" ry="1"/>
  <rect class="cls-1" x="40.5" y="16.5" width="7" height="7" rx="1" ry="1"/>
  <rect class="cls-1" x="56.5" y="16.5" width="7" height="7" rx="1" ry="1"/>
  <rect class="cls-1" x="32.5" y="24.5" width="7" height="7" rx="1" ry="1"/>
  <rect class="cls-1" x="40.5" y="24.5" width="7" height="7" rx="1" ry="1"/>
  <rect class="cls-1" x="48.5" y="24.5" width="7" height="7" rx="1" ry="1"/>
  <rect class="cls-1" x="56.5" y="24.5" width="7" height="7" rx="1" ry="1"/>
  <rect class="cls-1" x=".5" y="32.5" width="7" height="7" rx="1" ry="1"/>
  <rect class="cls-1" x="8.5" y="32.5" width="7" height="7" rx="1" ry="1"/>
  <rect class="cls-1" x="16.5" y="32.5" width="7" height="7" rx="1" ry="1"/>
  <rect class="cls-1" x="40.5" y="32.5" width="15" height="15" rx="1" ry="1"/>
  <rect class="cls-1" x=".5" y="40.5" width="15" height="15" rx="1" ry="1"/>
  <rect class="cls-1" x="16.5" y="40.5" width="7" height="7" rx="1" ry="1"/>
  <rect class="cls-1" x="16.5" y="48.5" width="7" height="7" rx="1" ry="1"/>
  <rect class="cls-1" x="24.5" y="48.5" width="7" height="7" rx="1" ry="1"/>
  <rect class="cls-1" x=".5" y="56.5" width="7" height="7" rx="1" ry="1"/>
  <rect class="cls-1" x="8.5" y="56.5" width="7" height="7" rx="1" ry="1"/>
  <rect class="cls-1" x="24.5" y="56.5" width="7" height="7" rx="1" ry="1"/>
  <rect class="cls-1" x="24.5" y="32.5" width="7" height="7" rx="1" ry="1"/>
  <rect class="cls-1" x="32.5" y="32.5" width="7" height="7" rx="1" ry="1"/>
  <rect class="cls-1" x="32.5" y="40.5" width="7" height="7" rx="1" ry="1"/>
  <rect class="cls-1" x="56.5" y="40.5" width="7" height="7" rx="1" ry="1"/>
  <rect class="cls-1" x="32.5" y="48.5" width="7" height="7" rx="1" ry="1"/>
  <rect class="cls-1" x="48.5" y="48.5" width="7" height="7" rx="1" ry="1"/>
  <rect class="cls-1" x="56.5" y="48.5" width="7" height="7" rx="1" ry="1"/>
  <rect class="cls-1" x="32.5" y="56.5" width="7" height="7" rx="1" ry="1"/>
  <rect class="cls-1" x="40.5" y="56.5" width="7" height="7" rx="1" ry="1"/>
  <rect class="cls-1" x="48.5" y="56.5" width="7" height="7" rx="1" ry="1"/>
  <rect class="cls-1" x="56.5" y="56.5" width="7" height="7" rx="1" ry="1"/>
</svg>