<?xml version="1.0" encoding="UTF-8"?>
<svg id="Layer_1" data-name="Layer 1" xmlns="http://www.w3.org/2000/svg" viewBox="0 0 42.51 11.54">
  <defs>
    <style>
      .cls-1 {
        fill: #000;
      }

      .cls-1, .cls-2 {
        stroke: #000;
        stroke-miterlimit: 10;
      }

      .cls-2 {
        fill: #fff;
      }
    </style>
  </defs>
  <polygon class="cls-2" points="17.21 5.04 12.21 7.04 12.21 11.04 19.21 11.04 17.21 5.04"/>
  <polygon class="cls-1" points="17.21 6.04 16.21 9.04 18.21 9.04 17.21 6.04"/>
  <polygon class="cls-2" points="16.21 1.04 19.21 11.04 25.21 11.04 26.21 8.04 23.21 6.04 25.21 4.04 22.21 1.04 21.21 7.04 19.21 1.04 16.21 1.04"/>
  <polygon class="cls-2" points="25.21 11.04 26.21 6.04 31.21 8.04 29.21 10.04 28.21 9.04 28.21 11.04 25.21 11.04"/>
  <polygon class="cls-2" points="28.21 11.04 31.21 8.04 31.21 8.04 29.21 7.04 31.21 5.04 34.21 7.04 35.21 11.04 28.21 11.04"/>
  <polygon class="cls-2" points="35.21 11.04 32.21 2.04 36.21 3.04 36.21 7.04 37.21 6.04 41.21 8.04 38.21 9.04 40.21 11.04 35.21 11.04"/>
  <polygon class="cls-2" points="13.21 11.04 11.21 1.04 8.21 4.04 3.21 1.04 4.21 8.04 1.21 11.04 13.21 11.04"/>
  <line class="cls-2" x1="8.21" y1="6.04" x2="9.21" y2="7.04"/>
  <line class="cls-2" x1="6.21" y1="8.04" x2="7.21" y2="9.04"/>
  <polyline class="cls-2" points="8.21 10.04 10.21 10.04 10.21 8.04"/>
</svg>